<svg xmlns="http://www.w3.org/2000/svg"
shape-rendering="geometricPrecision"
width="4000" height="4000" viewBox="0 0 695 695"><rect width="100%" height="100%" fill="#DFDEDE" />
  <metadata>null</metadata>

<path d="
M 31.963 341.108
C 32.965 326.482 36.991 312.311 43.767 299.322
C 50.053 287.272 58.48 277.054 68.712 268.178
C 77.977 260.141 88.912 254.007 100.285 249.511
C 109.631 245.816 119.619 243.989 129.604 243.237
C 173.355 239.943 215.11 265.772 233.464 305.266
C 240.679 320.79 243.443 337.97 242.557 354.977
C 241.85 368.526 238.082 381.996 231.873 394.036
C 213.761 429.157 176.386 452.262 136.764 452.217
C 124.538 452.203 112.101 449.909 100.618 445.747
C 86.715 440.709 73.501 432.166 62.883 421.917
C 51.868 411.285 43.694 397.887 38.121 383.717
C 32.838 370.285 30.977 355.479 31.963 341.108 Z
M 42.02 343.116
C 41.618 357.368 43.154 371.953 49.304 385.023
C 55.482 398.154 64.134 410.158 75.324 419.527
C 104.532 443.981 146.257 448.586 180.292 431.787
C 189.994 426.998 198.859 420.13 206.347 412.365
C 214.266 404.153 220.615 395.067 225.086 384.555
C 229.726 373.647 232.299 361.903 232.629 350.057
C 232.941 338.863 231.081 327.54 227.282 317.003
C 217.525 289.935 196.013 268.35 168.944 258.467
C 158.172 254.535 146.449 252.849 134.997 252.986
C 121.491 253.149 108.693 257.093 96.389 262.338
C 86.97 266.354 78.245 272.858 70.889 279.914
C 62.511 287.952 55.238 297.896 50.66 308.611
C 45.977 319.573 42.36 331.077 42.02 343.116 Z"
opacity="1" fill="rgb(33,49,60)" fill-rule="evenodd" />
<path d="
M 42.02 343.116
C 42.36 331.077 45.977 319.573 50.66 308.611
C 55.238 297.896 62.511 287.952 70.889 279.914
C 78.245 272.858 86.97 266.354 96.389 262.338
C 108.693 257.093 121.491 253.149 134.997 252.986
C 146.449 252.849 158.172 254.535 168.944 258.467
C 196.013 268.35 217.525 289.935 227.282 317.003
C 231.081 327.54 232.941 338.863 232.629 350.057
C 232.299 361.903 229.726 373.647 225.086 384.555
C 220.615 395.067 214.266 404.153 206.347 412.365
C 198.859 420.13 189.994 426.998 180.292 431.787
C 146.257 448.586 104.532 443.981 75.324 419.527
C 64.134 410.158 55.482 398.154 49.304 385.023
C 43.154 371.953 41.618 357.368 42.02 343.116 Z
M 43.49 341.122
C 42.894 355.815 44.348 370.856 50.601 384.389
C 56.761 397.719 65.886 410.19 77.34 419.473
C 94.115 433.069 115.672 440.667 137.252 440.85
C 162.519 441.064 187.504 429.774 204.995 411.859
C 212.514 404.158 218.573 395.741 223.035 385.922
C 227.868 375.286 230.666 363.757 231.127 352.064
C 231.645 338.958 229.481 325.403 224.239 313.321
C 221.924 307.985 219.659 302.711 216.427 297.83
C 202.643 277.012 181.096 261.278 156.407 256.303
C 145.388 254.083 133.101 253.128 122.017 255.504
C 111.9 257.673 102.124 260.742 92.909 265.537
C 70.364 277.269 52.415 299.594 46.383 324.315
C 45.034 329.844 43.722 335.411 43.49 341.122 Z"
opacity="1" fill="rgb(158,152,153)" fill-rule="evenodd" />
<path d="
M 43.49 341.122
C 43.722 335.411 45.034 329.844 46.383 324.315
C 52.415 299.594 70.364 277.269 92.909 265.537
C 102.124 260.742 111.9 257.673 122.017 255.504
C 133.101 253.128 145.388 254.083 156.407 256.303
C 181.096 261.278 202.643 277.012 216.427 297.83
C 219.659 302.711 221.924 307.985 224.239 313.321
C 229.481 325.403 231.645 338.958 231.127 352.064
C 230.666 363.757 227.868 375.286 223.035 385.922
C 218.573 395.741 212.514 404.158 204.995 411.859
C 187.504 429.774 162.519 441.064 137.252 440.85
C 115.672 440.667 94.115 433.069 77.34 419.473
C 65.886 410.19 56.761 397.719 50.601 384.389
C 44.348 370.856 42.894 355.815 43.49 341.122 Z
M 53.98 340.609
C 53.054 352.542 54.346 364.586 58.473 375.869
C 64.716 392.94 77.203 407.898 92.605 417.511
C 115.01 431.495 144.856 434.003 169.232 423.733
C 188.225 415.73 202.416 401.89 212.225 383.974
C 217.188 374.91 219.859 364.282 220.613 354.022
C 221.375 343.643 220.068 333.254 216.937 323.352
C 213.87 313.65 209.157 304.009 202.441 296.295
C 192.673 285.075 180.978 275.877 166.968 270.496
C 138.703 259.639 105.541 265.285 82.6 285.166
C 74.486 292.197 68.107 300.676 63.123 310.129
C 58.251 319.372 54.791 330.156 53.98 340.609 Z"
opacity="1" fill="rgb(33,49,59)" fill-rule="evenodd" />
<path d="
M 53.98 340.609
C 54.791 330.156 58.251 319.372 63.123 310.129
C 68.107 300.676 74.486 292.197 82.6 285.166
C 105.541 265.285 138.703 259.639 166.968 270.496
C 180.978 275.877 192.673 285.075 202.441 296.295
C 209.157 304.009 213.87 313.65 216.937 323.352
C 220.068 333.254 221.375 343.643 220.613 354.022
C 219.859 364.282 217.188 374.91 212.225 383.974
C 202.416 401.89 188.225 415.73 169.232 423.733
C 144.856 434.003 115.01 431.495 92.605 417.511
C 77.203 407.898 64.716 392.94 58.473 375.869
C 54.346 364.586 53.054 352.542 53.98 340.609 Z
M 54.979 344.12
C 54.479 354.013 56.136 364.174 59.135 373.594
C 61.626 381.415 65.763 388.609 70.562 395.226
C 76.382 403.252 83.512 409.781 91.677 415.375
C 97.147 419.122 103.354 421.804 109.566 424.031
C 147.244 437.54 191.22 420.734 210.143 385.483
C 215.823 374.903 218.702 363.253 219.416 351.316
C 219.937 342.61 218.468 333.592 216.125 325.236
C 213.854 317.142 210.055 309.391 205.322 302.451
C 189.312 278.975 160.082 264.099 131.503 266.416
C 119.742 267.369 108.507 270.722 98.108 276.293
C 91.501 279.833 85.435 284.185 80.093 289.452
C 73.432 296.02 67.631 303.417 63.663 311.938
C 58.937 322.089 55.547 332.863 54.979 344.12 Z"
opacity="1" fill="rgb(162,156,155)" fill-rule="evenodd" />
<path d="
M 54.979 344.12
C 55.547 332.863 58.937 322.089 63.663 311.938
C 67.631 303.417 73.432 296.02 80.093 289.452
C 85.435 284.185 91.501 279.833 98.108 276.293
C 108.507 270.722 119.742 267.369 131.503 266.416
C 160.082 264.099 189.312 278.975 205.322 302.451
C 210.055 309.391 213.854 317.142 216.125 325.236
C 218.468 333.592 219.937 342.61 219.416 351.316
C 218.702 363.253 215.823 374.903 210.143 385.483
C 191.22 420.734 147.244 437.54 109.566 424.031
C 103.354 421.804 97.147 419.122 91.677 415.375
C 83.512 409.781 76.382 403.252 70.562 395.226
C 65.763 388.609 61.626 381.415 59.135 373.594
C 56.136 364.174 54.479 354.013 54.979 344.12 Z
M 66 342.114
C 65.397 352.974 66.537 363.541 70.729 373.677
C 74.226 382.131 79.288 389.444 85.498 396.131
C 89.203 400.12 93.691 403.514 98.287 406.391
C 104.74 410.429 111.3 413.595 118.652 415.634
C 142.606 422.279 169.934 414.92 187.691 397.624
C 193.637 391.833 198.417 385.036 201.944 377.531
C 205.836 369.25 208.253 360.355 208.784 351.216
C 209.354 341.394 207.622 330.89 203.591 321.892
C 201.29 316.756 199.018 311.467 195.607 306.939
C 184.793 292.586 168.782 281.849 151.045 278.303
C 139.29 275.953 126.529 276.48 115.132 280.335
C 88.828 289.23 67.571 313.848 66 342.114 Z"
opacity="1" fill="rgb(33,49,60)" fill-rule="evenodd" />
<path d="
M 66 342.114
C 67.571 313.848 88.828 289.23 115.132 280.335
C 126.529 276.48 139.29 275.953 151.045 278.303
C 168.782 281.849 184.793 292.586 195.607 306.939
C 199.018 311.467 201.29 316.756 203.591 321.892
C 207.622 330.89 209.354 341.394 208.784 351.216
C 208.253 360.355 205.836 369.25 201.944 377.531
C 198.417 385.036 193.637 391.833 187.691 397.624
C 169.934 414.92 142.606 422.279 118.652 415.634
C 111.3 413.595 104.74 410.429 98.287 406.391
C 93.691 403.514 89.203 400.12 85.498 396.131
C 79.288 389.444 74.226 382.131 70.729 373.677
C 66.537 363.541 65.397 352.974 66 342.114 Z
M 66.977 347.126
C 66.872 356.279 68.875 364.969 72.152 373.464
C 74.974 380.783 79.43 387.182 84.537 393.053
C 97.463 407.914 117.055 416.75 136.745 416.932
C 165.099 417.195 193.113 398.984 202.96 372.248
C 205.678 364.87 207.508 356.912 207.605 349.012
C 207.706 340.771 205.878 332.213 203.149 324.482
C 200.414 316.733 196.125 308.645 190.422 302.659
C 181.134 292.909 170.537 285.81 157.723 281.426
C 125.055 270.253 87.409 288.464 73.243 319.254
C 69.273 327.884 67.085 337.617 66.977 347.126 Z"
opacity="1" fill="rgb(162,156,155)" fill-rule="evenodd" />
<path d="
M 66.977 347.126
C 67.085 337.617 69.273 327.884 73.243 319.254
C 87.409 288.464 125.055 270.253 157.723 281.426
C 170.537 285.81 181.134 292.909 190.422 302.659
C 196.125 308.645 200.414 316.733 203.149 324.482
C 205.878 332.213 207.706 340.771 207.605 349.012
C 207.508 356.912 205.678 364.87 202.96 372.248
C 193.113 398.984 165.099 417.195 136.745 416.932
C 117.055 416.75 97.463 407.914 84.537 393.053
C 79.43 387.182 74.974 380.783 72.152 373.464
C 68.875 364.969 66.872 356.279 66.977 347.126 Z
M 78.022 345.619
C 77.866 354.555 79.108 363.07 82.902 371.232
C 86.017 377.935 90.317 384.21 95.632 389.367
C 118.926 411.968 157.775 411.271 180.385 388.048
C 185.328 382.971 189.201 377.02 191.998 370.533
C 194.886 363.834 196.65 356.347 196.769 349.038
C 196.884 341.998 195.568 335.13 193.327 328.487
C 184.664 302.811 157.3 286.243 130.563 289.115
C 118.053 290.459 106.315 296.002 96.962 304.359
C 91.399 309.329 86.978 315.601 83.803 322.321
C 80.352 329.624 78.163 337.494 78.022 345.619 Z"
opacity="1" fill="rgb(34,49,60)" fill-rule="evenodd" />
<path d="
M 78.022 345.619
C 78.163 337.494 80.352 329.624 83.803 322.321
C 86.978 315.601 91.399 309.329 96.962 304.359
C 106.315 296.002 118.053 290.459 130.563 289.115
C 157.3 286.243 184.664 302.811 193.327 328.487
C 195.568 335.13 196.884 341.998 196.769 349.038
C 196.65 356.347 194.886 363.834 191.998 370.533
C 189.201 377.02 185.328 382.971 180.385 388.048
C 157.775 411.271 118.926 411.968 95.632 389.367
C 90.317 384.21 86.017 377.935 82.902 371.232
C 79.108 363.07 77.866 354.555 78.022 345.619 Z
M 79.49 342.111
C 78.756 350.105 79.426 358.436 82.174 366.021
C 91.665 392.225 119.691 409.335 147.427 404.074
C 157.741 402.118 166.868 397.675 175.056 391.174
C 180.842 386.58 185.519 380.584 188.95 374.069
C 192.277 367.753 194.403 360.593 195.069 353.475
C 195.766 346.033 194.883 338.848 192.952 331.652
C 186.971 309.359 165.215 292.536 142.551 290.365
C 128.039 288.975 113.209 293.354 101.655 302.249
C 95.487 306.997 90.287 313.086 86.458 319.865
C 82.597 326.7 80.209 334.294 79.49 342.111 Z"
opacity="1" fill="rgb(163,156,156)" fill-rule="evenodd" />
<path d="
M 79.49 342.111
C 80.209 334.294 82.597 326.7 86.458 319.865
C 90.287 313.086 95.487 306.997 101.655 302.249
C 113.209 293.354 128.039 288.975 142.551 290.365
C 165.215 292.536 186.971 309.359 192.952 331.652
C 194.883 338.848 195.766 346.033 195.069 353.475
C 194.403 360.593 192.277 367.753 188.95 374.069
C 185.519 380.584 180.842 386.58 175.056 391.174
C 166.868 397.675 157.741 402.118 147.427 404.074
C 119.691 409.335 91.665 392.225 82.174 366.021
C 79.426 358.436 78.756 350.105 79.49 342.111 Z
M 90.009 345.619
C 89.834 352.669 90.829 359.499 93.629 366.013
C 102.018 385.529 123.745 396.584 144.497 393.701
C 154.901 392.256 164.441 387.147 171.889 379.835
C 175.759 376.036 178.774 371.011 180.881 366.052
C 183.147 360.718 184.538 354.88 184.728 349.073
C 184.935 342.765 183.838 336.361 181.38 330.552
C 172.829 310.347 151.105 297.459 129.216 301.247
C 119.985 302.844 111.326 307.589 104.437 313.837
C 100.199 317.681 96.993 322.575 94.562 327.716
C 91.958 333.221 90.161 339.495 90.009 345.619 Z"
opacity="1" fill="rgb(34,49,60)" fill-rule="evenodd" />
<path d="
M 90.009 345.619
C 90.161 339.495 91.958 333.221 94.562 327.716
C 96.993 322.575 100.199 317.681 104.437 313.837
C 111.326 307.589 119.985 302.844 129.216 301.247
C 151.105 297.459 172.829 310.347 181.38 330.552
C 183.838 336.361 184.935 342.765 184.728 349.073
C 184.538 354.88 183.147 360.718 180.881 366.052
C 178.774 371.011 175.759 376.036 171.889 379.835
C 164.441 387.147 154.901 392.256 144.497 393.701
C 123.745 396.584 102.018 385.529 93.629 366.013
C 90.829 359.499 89.834 352.669 90.009 345.619 Z
M 91.46 343.117
C 90.86 350.056 91.776 356.419 93.9 363.014
C 95.593 368.268 98.834 373.28 102.487 377.371
C 119.879 396.843 153.137 398.393 171.16 378.654
C 174.33 375.181 177.13 371.305 179.156 367.048
C 181.349 362.439 182.716 357.132 183.145 352.046
C 183.7 345.46 182.964 339.052 180.771 332.809
C 173.146 311.105 149.845 298.586 127.561 302.911
C 119.731 304.43 111.873 308.945 105.981 314.224
C 101.851 317.925 98.558 322.516 96.111 327.483
C 93.697 332.38 91.933 337.655 91.46 343.117 Z"
opacity="1" fill="rgb(163,156,157)" fill-rule="evenodd" />
<path d="
M 91.46 343.117
C 91.933 337.655 93.697 332.38 96.111 327.483
C 98.558 322.516 101.851 317.925 105.981 314.224
C 111.873 308.945 119.731 304.43 127.561 302.911
C 149.845 298.586 173.146 311.105 180.771 332.809
C 182.964 339.052 183.7 345.46 183.145 352.046
C 182.716 357.132 181.349 362.439 179.156 367.048
C 177.13 371.305 174.33 375.181 171.16 378.654
C 153.137 398.393 119.879 396.843 102.487 377.371
C 98.834 373.28 95.593 368.268 93.9 363.014
C 91.776 356.419 90.86 350.056 91.46 343.117 Z
M 101.877 343.6
C 101.387 347.704 101.78 352.035 102.864 356.017
C 107.96 374.725 128.263 385.704 146.834 380.982
C 151.586 379.773 156.239 377.195 160.045 374.145
C 163.177 371.636 165.893 368.656 167.948 365.209
C 170.448 361.015 172.027 356.313 172.589 351.465
C 173.104 347.031 172.591 342.437 171.27 338.182
C 165.861 320.771 147.948 309.888 129.964 313.307
C 124.849 314.28 119.999 316.889 115.793 319.867
C 112.035 322.527 108.924 326.054 106.563 329.991
C 104.085 334.123 102.449 338.815 101.877 343.6 Z"
opacity="1" fill="rgb(34,49,60)" fill-rule="evenodd" />
<path d="
M 130.854 345.53
C 133.884 337.399 146.293 342.433 142.957 350.259
C 139.852 357.545 128.022 353.133 130.854 345.53 Z"
opacity="1" fill="rgb(37,53,64)" fill-rule="evenodd" />
<path d="
M 265.727 240.341
C 266.004 240.323 267.174 240.119 267.455 240.441
C 268.159 241.247 267.664 244.33 267.685 245.345
C 267.791 250.561 267.746 255.782 267.753 260.998
C 267.781 283.83 267.773 306.661 267.773 329.492
C 267.773 360.994 267.613 392.5 267.713 424.002
C 267.737 431.502 267.735 439.002 267.695 446.502
C 267.685 448.291 267.775 450.102 267.691 451.889
C 267.674 452.254 267.816 453.665 267.479 453.85
C 267.091 453.847 266.038 454.056 265.855 453.598
C 265.509 452.735 265.83 451.257 265.838 450.337
C 265.862 447.557 265.865 444.777 265.872 441.997
C 265.906 429.332 265.888 416.666 265.882 404.001
C 265.864 367.333 265.872 330.665 265.841 293.996
C 265.831 282.329 265.8 270.661 265.817 258.994
C 265.826 252.889 266.449 246.401 265.727 240.341 Z"
opacity="1" fill="rgb(59,69,78)" fill-rule="evenodd" />
<path d="
M 292.984 292.636
C 293.196 290.692 292.912 288.709 293.204 286.778
C 302.531 287.021 311.905 286.369 321.24 286.493
C 321.279 288.895 321.069 291.784 321.646 294.121
C 318.119 293.975 314.582 293.794 311.045 293.866
C 310.243 296.81 310.782 300.459 310.787 303.498
C 310.795 308.997 310.8 314.497 310.804 319.996
C 310.806 322.482 311.101 325.168 310.839 327.632
C 308.548 327.684 305.105 328.168 302.933 327.547
C 302.941 320.033 302.876 312.515 302.894 304.999
C 302.902 301.346 302.646 297.544 302.973 293.91
C 299.829 293.443 296.128 293.564 292.967 293.871
C 292.936 293.455 292.953 293.051 292.984 292.636 Z"
opacity="1" fill="rgb(40,55,66)" fill-rule="evenodd" />
<path d="
M 292.933 358.6
C 294.166 351.99 297.719 346.144 303.93 343.15
C 314.721 337.948 329.445 344.32 332.197 356.207
C 329.268 356.211 326.34 356.125 323.413 356.122
C 322.162 353.93 320.779 351.9 318.579 350.548
C 317.042 349.603 315.298 349.008 313.493 348.893
C 311.634 348.774 309.661 348.971 307.921 349.674
C 296.574 354.255 298.669 373.691 311.041 375.206
C 313.041 375.451 315.161 375.315 317.07 374.646
C 320.528 373.433 321.371 370.935 323.781 368.657
C 326.524 368.595 329.254 368.332 331.998 368.293
C 331.631 371.237 329.394 373.921 327.426 376.008
C 321.903 381.866 314.135 384.449 306.27 381.947
C 296.726 378.912 291.625 368.132 292.933 358.6 Z"
opacity="1" fill="rgb(39,53,63)" fill-rule="evenodd" />
<path d="
M 292.889 403.251
C 293.444 403.245 294.125 403.506 294.631 403.239
C 294.87 402.464 294.617 401.565 294.583 400.769
C 295.502 399.266 298.663 398.837 300.126 399.632
C 300.497 400.198 300.478 400.75 300.4 401.409
C 300.287 402.005 298.577 401.856 298.021 402.252
C 298.636 403.721 299.289 403.047 300.617 403.412
C 301.017 403.948 301.099 405.117 300.794 405.706
C 300.003 405.869 299.166 405.809 298.362 405.802
C 297.222 407.849 297.665 412.03 297.805 414.342
C 296.866 414.487 295.862 414.368 294.91 414.427
C 294.462 413.785 294.631 412.826 294.656 412.057
C 294.723 409.972 294.505 407.796 294.728 405.734
C 294.102 405.803 293.443 405.762 292.829 405.62
C 292.831 404.824 292.846 404.048 292.889 403.251 Z"
opacity="1" fill="rgb(48,57,75)" fill-rule="evenodd" />
<path d="
M 302.386 404.023
C 302.509 403.809 302.633 403.594 302.757 403.38
C 303.934 403.223 304.907 403.782 306.002 403.676
C 307.301 403.55 308.138 402.937 309.509 403.318
C 309.634 403.772 309.788 404.217 309.859 404.683
C 310.343 407.868 307.839 405.717 305.662 406.296
C 305.146 408.943 305.264 411.658 305.258 414.346
C 304.437 414.577 303.292 414.375 302.431 414.39
C 302.189 411.252 301.653 407.091 302.386 404.023 Z"
opacity="1" fill="rgb(49,56,73)" fill-rule="evenodd" />
<path d="
M 310.884 407.054
C 313.541 399.748 324.853 403.675 322.041 411.145
C 319.525 417.827 308.295 414.176 310.884 407.054 Z
M 313.859 407.537
C 312.415 411.249 317.681 414.058 319.106 410.132
C 320.501 406.289 315.517 403.275 313.859 407.537 Z"
opacity="1" fill="rgb(46,54,65)" fill-rule="evenodd" />
<path d="
M 324.487 405.607
C 324.642 404.727 324.684 403.868 324.975 403.017
C 325.839 403.015 326.51 403.183 327.32 403.483
C 329.248 403.708 330.731 402.201 332.84 403.359
C 333.088 403.933 333.4 404.465 333.722 405
C 334.56 404.728 334.901 403.995 335.595 403.514
C 336.897 402.611 339.671 402.907 340.875 403.849
C 343.2 405.667 342.565 408.915 342.603 411.494
C 342.609 411.932 342.916 414.121 342.514 414.316
C 341.547 414.305 340.589 414.25 339.625 414.219
C 338.918 411.68 340.538 408.542 339.119 406.118
C 337.867 404.82 335.903 405.009 335.11 406.74
C 334.175 408.781 334.991 412.079 334.85 414.305
C 333.917 414.285 332.976 414.264 332.044 414.297
C 331.676 413.75 331.875 412.655 331.89 411.994
C 331.942 409.722 332.682 406.481 330.452 405.114
C 326.075 405.108 327.245 411.374 327.312 414.343
C 326.344 414.468 325.35 414.466 324.38 414.557
C 324.628 411.584 324.276 408.586 324.487 405.607 Z"
opacity="1" fill="rgb(43,50,65)" fill-rule="evenodd" />
<path d="
M 325.439 287.601
C 325.441 287.367 325.443 287.133 325.444 286.898
C 327.431 285.95 330.524 286.292 332.715 286.329
C 332.652 290.791 332.842 295.267 332.732 299.726
C 333.045 300.218 333.495 299.504 333.803 299.23
C 334.873 298.278 336.206 297.508 337.564 297.051
C 340.7 295.996 344.14 296.441 346.991 298.059
C 355.103 302.661 353.272 313.755 353.14 321.496
C 353.107 323.423 353.035 325.369 353.096 327.295
C 351.451 327.493 349.665 327.363 348.007 327.337
C 347.238 327.325 346.363 327.58 345.715 327.135
C 345.573 322.622 345.72 318.083 345.749 313.567
C 345.765 311.111 345.998 308.443 344.71 306.23
C 342.005 301.582 335.791 302.824 333.49 307.133
C 332.346 309.275 332.673 311.975 332.688 314.319
C 332.715 318.66 332.572 323.016 332.641 327.352
C 330.379 327.787 327.736 327.255 325.414 327.424
C 325.057 326.246 325.319 324.733 325.311 323.502
C 325.292 320.502 325.313 317.501 325.33 314.501
C 325.38 305.596 324.768 296.479 325.439 287.601 Z"
opacity="1" fill="rgb(38,52,64)" fill-rule="evenodd" />
<path d="
M 335.903 363.574
C 336.492 361.086 337.613 358.556 339.253 356.591
C 340.556 355.03 342.146 353.672 343.956 352.729
C 355.4 346.768 369.761 357.645 366.844 370.308
C 363.808 383.484 345.696 387.507 338.159 375.926
C 336.961 374.086 336.205 371.995 335.839 369.835
C 335.488 367.76 335.415 365.631 335.903 363.574 Z
M 343.405 364.573
C 343.064 365.833 343.046 367.259 343.215 368.547
C 344.395 377.54 356.943 377.884 359.321 369.436
C 359.711 368.053 359.781 366.617 359.567 365.197
C 358.225 356.282 345.707 356.078 343.405 364.573 Z"
opacity="1" fill="rgb(38,53,63)" fill-rule="evenodd" />
<path d="
M 350.082 403.23
C 351.117 403.181 352.12 403.081 353.146 403.246
C 353.279 405.631 353.978 408.158 354.5 410.49
C 355.239 410.389 355.249 409.016 355.355 408.44
C 355.684 406.662 356.513 404.721 357.359 403.137
C 358.3 403.074 359.197 403.006 360.115 403.271
C 360.398 405.791 361.369 407.937 362.029 410.35
C 362.556 410.652 362.657 409.308 362.683 408.954
C 362.803 407.267 362.986 405.485 363.362 403.837
C 364.166 403.397 364.97 403.472 365.855 403.613
C 366.507 406.931 364.521 411.033 363.657 414.226
C 362.742 414.542 361.495 414.411 360.528 414.443
C 360.011 412.783 359.516 410.905 359.278 409.189
C 359.198 408.617 359.068 407.402 358.59 407.099
C 357.446 409.074 357.09 412.009 356.317 414.208
C 355.132 414.391 353.807 414.334 352.615 414.214
C 351.399 410.766 350.459 406.862 350.082 403.23 Z"
opacity="1" fill="rgb(43,53,69)" fill-rule="evenodd" />
<path d="
M 357.474 310.601
C 358.062 306.906 359.459 303.188 362.244 300.561
C 368.083 295.052 377.668 295.311 383.434 300.712
C 387.503 304.524 388.654 309.484 388.606 314.833
C 388.41 314.995 387.527 314.814 387.297 314.804
C 385.702 314.735 384.1 314.735 382.504 314.721
C 379.263 314.693 376.023 314.802 372.782 314.773
C 370.434 314.753 367.899 314.539 365.615 315.142
C 363.827 317.04 368.712 320.479 370.361 321.033
C 374.502 322.424 377.563 320.002 380.541 317.595
C 382.711 317.133 385.262 317.667 387.484 317.659
C 388.263 318.265 386.963 320.015 386.51 320.757
C 384.914 323.37 382.669 325.401 379.925 326.758
C 368.814 332.251 356.245 322.6 357.474 310.601 Z
M 364.727 309.287
C 367.583 309.592 370.63 309.336 373.506 309.335
C 375.76 309.334 378.219 309.64 380.44 309.229
C 380.678 308.765 380.11 308.008 379.911 307.549
C 379.06 305.581 376.984 303.929 374.893 303.473
C 370.301 302.471 366.57 305.306 364.727 309.287 Z"
opacity="1" fill="rgb(36,53,64)" fill-rule="evenodd" />
<path d="
M 368.054 401.666
C 368.154 400.844 367.969 400.104 368.425 399.371
C 369.266 398.987 370.568 398.581 371.386 399.128
C 371.535 400.126 371.838 401.329 371.332 402.276
C 370.22 402.265 369.233 402.397 368.132 402.107
C 368.106 401.96 368.08 401.813 368.054 401.666 Z"
opacity="0.996" fill="rgb(52,56,64)" fill-rule="evenodd" />
<path d="
M 368.228 403.307
C 369.32 403.278 370.349 403.178 371.404 403.5
C 371.733 406.975 371.139 410.512 371.504 413.978
C 370.605 414.198 369.719 414.146 368.814 414.171
C 367.61 411.142 368.423 406.551 368.228 403.307 Z"
opacity="1" fill="rgb(43,50,69)" fill-rule="evenodd" />
<path d="
M 371.875 351.87
C 373.429 350.833 377.374 351.516 379.248 351.554
C 378.915 355.825 379.207 360.22 379.242 364.505
C 379.263 366.927 378.965 369.799 379.906 372.084
C 382.06 377.318 389.007 376.582 391.466 372.083
C 392.66 369.898 392.349 367.154 392.342 364.751
C 392.33 360.429 392.532 356.054 392.362 351.738
C 394.803 351.614 397.244 351.818 399.687 351.776
C 400.285 354.617 399.734 358.092 399.729 361.001
C 399.719 368.011 399.475 375.046 399.536 382.047
C 397.88 382.909 394.437 382.073 392.553 382.213
C 392.691 381.101 393.022 380.068 393.102 378.942
C 390.611 380.136 389.21 382.217 386.276 382.664
C 384.875 382.878 383.444 382.794 382.04 382.652
C 369.934 381.422 371.785 366.69 371.801 358.07
C 371.804 356.003 371.871 353.937 371.875 351.87 Z"
opacity="1" fill="rgb(40,54,65)" fill-rule="evenodd" />
<path d="
M 373.429 406.057
C 374.898 401.775 379.371 403.144 382.433 404.568
C 382.614 405.292 382.466 406.08 382.279 406.792
C 380.848 407.314 376.486 403.886 376.737 407.17
C 378.734 407.846 381.52 408.109 383.043 409.668
C 383.187 410.586 382.894 411.593 382.574 412.451
C 380.757 416.027 373.31 415.241 373.756 410.738
C 375.624 410.936 377.222 412.166 379.11 412.086
C 380.215 412.039 382.084 411.91 380.533 410.64
C 378.246 409.676 375.755 409.686 373.536 408.464
C 373.12 407.71 373.275 406.873 373.429 406.057 Z"
opacity="1" fill="rgb(41,51,65)" fill-rule="evenodd" />
<path d="
M 385.104 399.635
C 386.25 399.581 387.479 399.502 388.528 400.031
C 388.505 401.333 388.317 402.698 388.403 403.99
C 390.034 403.467 391.209 402.684 393.01 402.831
C 397.383 405.278 395.467 410.235 395.814 414.282
C 394.853 414.253 393.887 414.298 392.927 414.341
C 392.462 411.616 394.498 406.86 391.572 405.051
C 387.6 405.598 387.822 411.177 388.356 414.26
C 387.284 414.283 386.241 414.286 385.176 414.184
C 385.207 409.347 385.546 404.465 385.104 399.635 Z"
opacity="1" fill="rgb(44,56,72)" fill-rule="evenodd" />
<path d="
M 401.293 286.423
C 403.852 286.361 406.426 286.566 408.982 286.415
C 410.896 288.756 411.603 293.212 412.524 296.084
C 414.771 303.087 416.832 310.425 419.518 317.253
C 423.008 307.01 426.156 296.55 429.941 286.416
C 432.776 286.406 435.616 286.46 438.448 286.453
C 438.127 288.269 437.158 289.954 436.48 291.656
C 435.115 295.076 433.833 298.544 432.621 302.02
C 430.702 307.527 428.711 313.009 426.713 318.488
C 425.65 321.402 424.855 324.788 423.26 327.459
C 420.864 327.854 417.62 327.852 415.211 327.459
C 411.879 317.872 408.559 308.277 405.184 298.702
C 403.808 294.797 402.807 290.664 401.142 286.876
C 401.192 286.725 401.243 286.574 401.293 286.423 Z"
opacity="1" fill="rgb(37,53,64)" fill-rule="evenodd" />
<path d="
M 403.491 403.963
C 403.868 403.75 404.194 403.591 404.479 403.261
C 404.615 402.426 404.551 401.544 404.495 400.705
C 405.264 400.041 406.799 400.29 407.744 400.389
C 407.989 401.215 407.717 402.329 407.693 403.186
C 409.019 403.352 410.372 402.587 411.692 402.957
C 411.838 403.781 411.949 404.605 411.924 405.443
C 410.816 405.867 409.292 405.659 408.113 405.705
C 407.313 406.837 407.586 409.989 408.098 411.232
C 408.991 411.939 410.281 411.764 411.321 412.132
C 411.68 412.852 411.725 413.514 411.262 414.202
C 405.546 415.876 403.899 410.448 404.737 405.78
C 404.244 405.562 403.716 405.402 403.208 405.218
C 403.089 404.282 402.977 404.696 403.491 403.963 Z"
opacity="1" fill="rgb(49,60,71)" fill-rule="evenodd" />
<path d="
M 406.224 351.787
C 408.617 351.813 411.16 351.426 413.532 351.801
C 413.392 352.794 413.416 353.811 413.314 354.814
C 413.575 355.044 414.094 354.342 414.254 354.165
C 415.152 353.168 416.395 352.266 417.61 351.72
C 420.421 350.458 424.819 350.853 427.499 352.274
C 436.118 356.845 434.071 367.791 434.199 376.003
C 434.226 377.688 433.69 380.61 434.288 382.151
C 431.972 382.204 429.643 381.964 427.332 382.056
C 426.108 377.569 427 371.994 426.939 367.369
C 426.914 365.432 427.069 363.123 426.155 361.353
C 423.881 356.944 416.716 356.529 414.645 361.333
C 413.573 363.819 413.816 366.627 413.824 369.268
C 413.837 373.483 413.909 377.705 413.83 381.916
C 412.375 382.555 409.908 382.058 408.33 382.084
C 407.686 382.095 406.864 382.287 406.263 382.06
C 407.116 372.163 406.614 361.709 406.224 351.787 Z"
opacity="1" fill="rgb(40,54,65)" fill-rule="evenodd" />
<path d="
M 412.967 407.61
C 413.386 400.33 425.336 401.825 425.094 408.908
C 424.948 413.155 419.986 415.663 416.233 414.068
C 413.687 412.987 412.819 410.179 412.967 407.61 Z
M 416.329 407.033
C 415.757 408.595 416.022 410.469 417.368 411.538
C 418.643 412.551 420.937 411.568 421.561 410.227
C 422.271 408.7 421.814 406.59 420.469 405.57
C 419.121 404.547 416.875 405.544 416.329 407.033 Z"
opacity="1" fill="rgb(41,58,69)" fill-rule="evenodd" />
<path d="
M 431.292 403.321
C 432.414 403.071 433.598 402.938 434.704 403.312
C 435.197 405.38 435.658 408.052 436.654 409.919
C 437.244 410.041 437.3 408.874 437.384 408.465
C 437.74 406.751 438.402 405.018 438.927 403.347
C 439.665 402.879 441.463 402.899 441.954 403.643
C 442.226 405.159 442.57 406.815 443.092 408.266
C 443.235 408.663 443.432 409.836 443.826 409.873
C 444.319 409.394 444.302 408.612 444.427 407.975
C 444.743 406.371 445.062 404.774 445.626 403.235
C 446.647 402.953 447.51 402.953 448.55 403.133
C 448.779 404.565 447.915 405.931 447.45 407.246
C 446.642 409.535 446.455 412.108 445.247 414.248
C 444.356 414.479 443.354 414.376 442.439 414.371
C 441.244 413.092 441.589 410.505 440.98 408.9
C 440.732 408.247 440.895 406.967 439.974 407.368
C 439.342 409.512 438.45 412.011 438.303 414.253
C 437.224 414.256 436.145 414.333 435.067 414.351
C 434.343 413.851 434.296 412.132 434.024 411.286
C 433.166 408.616 432.321 405.931 431.292 403.321 Z"
opacity="1" fill="rgb(38,54,67)" fill-rule="evenodd" />
<path d="
M 437.163 351.234
C 438.706 351.285 440.707 350.861 442.188 351.236
C 442.125 349.081 442.336 346.896 442.238 344.739
C 444.713 344.8 447.193 344.911 449.67 344.866
C 450.361 346.879 449.461 349.419 449.838 351.536
C 451.506 351.405 455.586 350.867 457.001 351.848
C 456.809 353.821 456.858 356.038 456.986 358.025
C 456.587 358.342 455.498 358.163 454.991 358.174
C 453.268 358.213 451.549 358.2 449.826 358.281
C 449.482 361.988 449.639 365.746 449.677 369.464
C 449.7 371.73 449.84 373.957 452.123 375.116
C 453.548 375.839 455.574 375.348 457.1 375.312
C 457.46 377.349 457.825 379.789 457.661 381.856
C 455.938 382.124 453.768 382.144 452.017 382.063
C 450.738 382.003 449.352 381.869 448.158 381.389
C 441.091 378.545 442.351 369.395 442.377 363.31
C 442.385 361.54 442.31 359.776 442.23 358.01
C 441.185 357.632 439.906 357.791 438.833 357.982
C 438.461 358.048 437.634 358.397 437.359 358.118
C 437.515 355.856 437.366 353.49 437.163 351.234 Z"
opacity="1" fill="rgb(39,55,65)" fill-rule="evenodd" />
<path d="
M 440.925 287.557
C 442.978 282.131 451.302 285.199 449.467 290.723
C 447.676 296.114 439.11 292.352 440.925 287.557 Z"
opacity="1" fill="rgb(37,53,65)" fill-rule="evenodd" />
<path d="
M 441.692 297.226
C 443.592 296.463 446.918 297.118 448.994 297.11
C 449.097 304.22 448.914 311.377 448.856 318.501
C 448.834 321.192 448.093 325.049 448.803 327.621
C 446.542 327.632 444.212 327.318 441.969 327.502
C 441.478 326.697 441.637 325.628 441.632 324.704
C 441.622 322.803 441.614 320.902 441.609 319.001
C 441.592 311.749 441.502 304.473 441.692 297.226 Z"
opacity="1" fill="rgb(36,53,66)" fill-rule="evenodd" />
<path d="
M 449.54 408.099
C 449.921 404.885 451.799 402.689 455.24 402.806
C 456.193 402.839 456.967 403.342 457.89 403.458
C 458.834 403.337 459.71 403.166 460.668 403.139
C 461.209 405.776 461.055 408.397 461.18 411.069
C 461.223 411.983 461.579 413.186 461.077 414.013
C 460.447 414.157 458.863 414.515 458.359 414.08
C 458.325 413.862 458.263 413.175 458.016 413.074
C 457.802 412.986 456.987 413.687 456.794 413.802
C 455.788 414.397 454.884 414.725 453.707 414.463
C 450.887 413.836 449.466 410.745 449.54 408.099 Z
M 452.38 407.563
C 451.913 410.444 454.866 413.869 457.295 410.768
C 458.086 409.758 457.825 407.609 457.654 406.439
C 456.145 403.798 453.34 405.484 452.38 407.563 Z"
opacity="1" fill="rgb(35,51,69)" fill-rule="evenodd" />
<path d="
M 455.867 298.082
C 455.889 297.837 455.91 297.591 455.932 297.346
C 458.321 297.314 460.707 297.335 463.097 297.3
C 463.28 298.4 462.825 299.459 462.874 300.558
C 465.107 299.189 466.075 297.208 469.009 296.724
C 470.616 296.459 472.306 296.414 473.91 296.715
C 475.241 296.965 476.505 297.383 477.653 298.109
C 484.949 302.719 483.698 311.516 483.715 319.036
C 483.72 321.187 483.708 323.338 483.732 325.489
C 483.737 326.025 483.499 327.121 483.783 327.569
C 481.336 327.656 478.798 327.585 476.325 327.578
C 476.466 322.922 476.283 318.231 476.306 313.57
C 476.321 310.42 476.481 307.117 474.083 304.689
C 471.002 301.571 465.746 303.647 463.927 307.091
C 462.908 309.021 463.259 311.657 463.263 313.767
C 463.271 318.216 462.794 323.027 463.367 327.433
C 460.866 327.436 458.35 327.321 455.852 327.437
C 455.369 323.055 455.736 318.413 455.722 314.001
C 455.705 308.75 455.334 303.308 455.867 298.082 Z"
opacity="1" fill="rgb(38,53,65)" fill-rule="evenodd" />
<path d="
M 460.396 363.078
C 462.257 355.893 468.882 349.3 476.86 350.833
C 479.781 351.395 481.313 353.553 483.817 354.625
C 483.825 350.397 484.021 345.995 483.425 341.803
C 485.55 341.455 488.874 341.378 490.969 341.873
C 490.298 351.662 490.937 361.696 490.957 371.508
C 490.962 374.173 490.904 376.836 490.891 379.499
C 490.888 380.144 491.123 381.561 490.711 382.068
C 488.597 381.804 486.366 382.443 484.273 381.832
C 484.224 380.918 484.167 380.066 484.367 379.17
C 483.8 379.215 482.393 380.686 481.806 381.03
C 480.004 382.086 478.056 382.637 475.969 382.743
C 465.252 383.288 458.265 373.277 460.396 363.078 Z
M 467.901 364.074
C 467.055 367.284 467.786 371.322 470.293 373.626
C 475.101 378.045 482.006 375.5 483.561 369.438
C 484.585 365.443 483.021 360.944 479.372 358.851
C 474.884 356.278 469.159 359.298 467.901 364.074 Z"
opacity="1" fill="rgb(37,53,64)" fill-rule="evenodd" />
<path d="
M 462.814 403.407
C 463.904 402.894 465.468 402.897 466.504 403.566
C 467.024 404.45 467.507 405.583 468.196 406.327
C 469.269 406.183 469.663 403.896 470.601 403.303
C 471.465 403.187 472.288 403.187 473.158 403.241
C 473.208 403.98 472.659 404.762 472.345 405.419
C 471.758 406.449 471.01 407.468 470.719 408.625
C 470.976 410.19 474.4 412.47 473.328 414.165
C 472.283 414.328 471.064 414.418 470.104 413.911
C 469.454 413.061 469.039 411.935 468.535 410.984
C 467.611 411.838 467.083 413.037 466.109 413.866
C 465.217 414.378 464.362 414.414 463.362 414.471
C 462.417 412.588 466.429 410.418 466.475 408.556
C 466.523 406.576 463.325 405.279 462.814 403.407 Z"
opacity="1" fill="rgb(35,56,71)" fill-rule="evenodd" />
<path d="
M 478.014 408.112
C 478.019 407.909 478.023 407.706 478.027 407.502
C 478.734 406.984 479.659 407.072 480.529 407.076
C 482.722 407.083 485.905 406.512 487.957 407.294
C 487.955 407.898 488.169 409.18 487.882 409.711
C 484.661 409.735 481.445 409.735 478.223 409.714
C 477.846 409.272 478.018 408.675 478.014 408.112 Z"
opacity="1" fill="rgb(44,59,79)" fill-rule="evenodd" />
<path d="
M 486.092 297.266
C 488.426 297.214 491.703 296.703 493.936 297.411
C 496.152 303.67 499.666 309.546 501.643 315.905
C 501.997 315.923 502.171 315.21 502.271 314.949
C 502.699 313.834 503.196 312.741 503.637 311.628
C 505.497 306.929 506.967 301.745 509.444 297.336
C 512.011 297.082 514.761 296.994 517.329 297.255
C 517.236 298.107 516.59 298.992 516.242 299.764
C 515.397 301.639 514.667 303.557 513.91 305.469
C 511.012 312.792 507.801 319.987 504.89 327.305
C 503.792 330.065 502.645 332.829 501.451 335.549
C 501.037 336.493 500.776 338.213 500.072 338.936
C 497.581 338.958 495.021 339.29 492.542 339.122
C 493.48 335.661 494.933 332.314 496.258 328.987
C 496.77 327.703 497.967 325.665 497.755 324.247
C 497.471 322.353 495.827 320.16 495.081 318.376
C 492.995 313.382 490.746 308.457 488.678 303.457
C 487.826 301.397 486.533 299.467 486.092 297.266 Z"
opacity="1" fill="rgb(39,54,64)" fill-rule="evenodd" />
<path d="
M 495.505 404.108
C 495.625 402.923 496.68 403.136 497.601 403.145
C 497.758 403.292 498.317 404.335 498.448 404.306
C 499.162 404.148 499.674 403.349 500.36 403.083
C 502.113 402.403 504.605 402.946 505.523 404.625
C 505.703 404.94 507.202 403.466 507.508 403.322
C 508.664 402.776 510.363 402.789 511.481 403.401
C 515.333 405.509 513.587 410.51 513.949 414.032
C 513.661 414.469 511.565 414.194 511.017 414.219
C 510.619 413.854 510.888 412.235 510.892 411.675
C 510.906 409.909 511.359 407.339 510.292 405.826
C 509.104 405.026 507.74 405.524 506.706 406.358
C 505.695 408.514 506.423 411.922 506.409 414.268
C 505.503 414.306 504.603 414.212 503.695 414.211
C 501.92 411.993 505.388 406.973 502.038 405.316
C 497.131 405.396 498.39 410.825 498.638 414.245
C 497.811 413.989 496.593 414.25 495.704 414.179
C 495.648 410.827 495.514 407.46 495.505 404.108 Z"
opacity="1" fill="rgb(28,50,73)" fill-rule="evenodd" />
<path d="
M 495.966 363.591
C 496.481 361.196 497.448 358.745 498.95 356.798
C 500.184 355.199 501.788 353.802 503.542 352.798
C 515.286 346.076 529.523 357.435 526.779 370.295
C 524.768 379.718 514.181 385.327 505.235 381.624
C 502.521 380.5 500.174 378.297 498.457 375.949
C 497.189 374.214 496.411 372.195 495.973 370.103
C 495.525 367.967 495.508 365.725 495.966 363.591 Z
M 503.392 364.571
C 503.046 365.847 502.979 367.287 503.186 368.591
C 504.597 377.456 517.178 378.134 519.506 369.483
C 521.419 362.375 514.178 354.923 507.245 359.234
C 506.328 359.805 505.562 360.56 504.912 361.421
C 504.201 362.363 503.699 363.434 503.392 364.571 Z"
opacity="1" fill="rgb(38,54,63)" fill-rule="evenodd" />
<path d="
M 515.883 407.028
C 516.808 404.448 519.595 401.97 522.548 402.873
C 523.519 403.169 523.997 404.15 524.847 404.578
C 525.73 403.836 525.77 402.099 527.4 402.956
C 527.618 406.654 527.227 410.474 527.641 414.153
C 526.843 414.409 525.627 414.349 524.804 414.218
C 524.815 413.637 524.848 412.855 524.641 412.305
C 524.071 412.943 523.222 413.928 522.378 414.202
C 518.095 415.593 514.748 410.954 515.883 407.028 Z
M 518.804 407.506
C 518.621 408.102 518.517 408.615 518.599 409.243
C 519.31 414.678 526.765 410.469 524.035 406.645
C 523.522 405.927 522.753 405.493 522.001 405.073
C 520.551 405.179 519.552 406.361 518.804 407.506 Z"
opacity="1" fill="rgb(31,51,70)" fill-rule="evenodd" />
<path d="
M 520.996 287.616
C 520.986 287.407 520.976 287.197 520.966 286.987
C 522.976 285.876 526.355 286.399 528.637 286.375
C 529.305 289.414 528.653 293.37 528.657 296.5
C 528.666 303.833 528.673 311.166 528.677 318.499
C 528.678 321.239 527.992 325.011 528.676 327.64
C 526.258 327.433 523.725 327.587 521.296 327.608
C 521.441 321.258 521.166 314.862 521.154 308.507
C 521.14 301.554 521.36 294.559 520.996 287.616 Z"
opacity="1" fill="rgb(40,55,67)" fill-rule="evenodd" />
<path d="
M 528.354 351.957
C 528.929 351.412 529.745 351.572 530.509 351.566
C 532.379 351.552 534.249 351.699 536.121 351.679
C 537.112 356.647 538.897 361.53 540.184 366.438
C 540.442 367.422 540.957 371.111 541.843 371.551
C 544.115 365.212 545.34 358.275 546.847 351.716
C 549.039 351.663 551.91 351.234 554.021 351.792
C 554.967 358.501 557.982 364.899 558.965 371.623
C 560.154 370.498 560.111 367.662 560.607 366.143
C 562.185 361.31 563.283 356.286 565.039 351.515
C 567.221 350.833 570.394 351.348 572.687 351.364
C 572.623 352.388 571.976 353.493 571.656 354.467
C 570.864 356.873 570.163 359.31 569.379 361.72
C 567.168 368.517 565.359 375.562 562.754 382.214
C 560.948 382.432 559.027 382.214 557.204 382.252
C 556.602 382.265 555.789 382.477 555.257 382.184
C 554.34 378.003 553.183 373.843 552.081 369.706
C 551.662 368.13 551.229 366.551 550.831 364.971
C 550.713 364.502 550.876 363.232 550.196 363.662
C 549.346 367.957 547.794 372.181 546.731 376.444
C 546.381 377.848 546.222 381.048 545.334 382.125
C 543.666 382.207 541.982 382.064 540.307 382.155
C 539.701 382.188 538.726 382.477 538.202 382.206
C 537.493 379.385 536.12 376.662 535.267 373.864
C 533.047 366.583 530.96 359.1 528.354 351.957 Z"
opacity="1" fill="rgb(39,54,64)" fill-rule="evenodd" />
<path d="
M 529.909 399.858
C 530.326 399.497 532.503 399.416 532.911 399.887
C 532.79 402.273 532.708 404.746 532.749 407.133
C 533.103 407.37 533.834 406.378 534.046 406.106
C 535.052 404.82 535.899 403.218 537.557 402.701
C 538.258 402.741 538.776 402.757 539.248 403.314
C 539.722 404.479 536.787 406.937 536.179 407.981
C 536.233 410.359 539.941 412.021 539.76 414.244
C 537.803 414.523 536.251 414.099 535.105 412.409
C 534.559 411.603 533.773 409.241 532.61 409.97
C 532.699 411.157 533.072 412.984 532.717 414.123
C 531.69 414.118 530.676 414.443 529.67 414.167
C 529.809 409.414 529.973 404.613 529.909 399.858 Z"
opacity="1" fill="rgb(42,56,73)" fill-rule="evenodd" />
<path d="
M 540.979 407.089
C 541.921 400.619 553.469 402.278 552.746 408.84
C 552.583 410.317 552.172 411.975 551.075 413.049
C 546.837 417.199 540.216 412.33 540.979 407.089 Z
M 544.429 406.494
C 544.34 406.764 544.251 407.033 544.162 407.302
C 544.954 407.696 549.023 408.007 549.865 407.623
C 550.249 407.448 549.922 406.909 549.821 406.703
C 548.18 405.188 546.152 404.659 544.429 406.494 Z
M 544.24 409.436
C 544.522 410.538 545.449 411.612 546.594 411.891
C 548.074 412.05 551.344 411.063 550.586 409.116
C 548.478 409.287 546.365 409.247 544.24 409.436 Z"
opacity="1" fill="rgb(35,49,66)" fill-rule="evenodd" />
<path d="
M 559.915 404.129
C 559.987 403.5 559.967 403.85 559.945 403.078
C 560.876 402.756 562.349 402.674 563.23 403.144
C 563.087 405.841 562.798 408.489 562.853 411.22
C 562.865 411.83 563.215 413.737 562.862 414.197
C 561.922 414.227 560.983 414.189 560.041 414.21
C 559.653 413.917 559.929 412.212 559.934 411.701
C 559.957 409.18 559.823 406.647 559.915 404.129 Z"
opacity="1" fill="rgb(40,49,71)" fill-rule="evenodd" />
<path d="
M 560.216 399.221
C 561.227 399.238 562.166 399.287 563.167 399.394
C 563.548 400.091 563.509 400.981 563.439 401.762
C 560.955 402.157 559.905 401.855 560.216 399.221 Z"
opacity="1" fill="rgb(37,42,61)" fill-rule="evenodd" />
<path d="
M 564.894 404.084
C 565.185 403.175 565.709 403.222 566.548 403.052
C 567.016 402.338 566.921 401.45 567.421 400.689
C 568.168 400.547 568.921 400.458 569.67 400.323
C 569.891 401.173 569.261 402.35 569.67 403.096
C 570.742 403.014 571.783 402.893 572.863 403.011
C 572.932 403.523 573.271 405.326 572.904 405.685
C 571.879 405.74 570.225 405.352 569.365 405.913
C 569.402 407.513 569.294 409.129 569.797 410.676
C 570.84 410.957 572.001 411 572.987 411.444
C 572.93 412.223 573.181 413.444 572.805 414.141
C 572.023 414.23 571.219 414.247 570.432 414.206
C 565.829 413.965 567.048 408.702 566.184 405.732
C 565.557 405.109 564.917 405.03 564.894 404.084 Z"
opacity="1" fill="rgb(40,49,69)" fill-rule="evenodd" />
<path d="
M 576.079 351.63
C 578.247 351.417 581.21 350.887 583.298 351.61
C 583.245 352.624 583.151 353.725 583.2 354.734
C 584.02 354.674 585.286 352.851 586.06 352.334
C 587.951 351.069 590.274 350.618 592.519 350.748
C 593.814 350.823 595.081 351.098 596.282 351.59
C 605.812 355.498 603.931 367.202 603.889 375.508
C 603.878 377.655 603.902 379.802 603.854 381.948
C 601.594 382.074 599.316 381.866 597.053 381.935
C 596.161 380.93 596.625 377.999 596.621 376.671
C 596.61 372.234 597.219 367.404 596.416 363.026
C 595.331 357.112 587.896 355.703 584.588 360.666
C 583.416 362.425 583.421 364.728 583.396 366.767
C 583.354 370.145 583.417 373.525 583.402 376.903
C 583.397 378.199 583.831 380.863 583.19 381.996
C 580.891 381.722 578.549 382.217 576.272 382.033
C 576.561 378.412 576.161 374.645 576.151 371.007
C 576.134 364.556 576.306 358.076 576.079 351.63 Z"
opacity="1" fill="rgb(35,52,63)" fill-rule="evenodd" />
<path d="
M 580.877 399.904
C 580.941 399.788 581.004 399.672 581.068 399.555
C 581.935 399.655 582.789 399.6 583.653 399.749
C 584.264 400.541 583.712 402.717 583.626 403.68
C 584.724 404.163 586.453 402.589 587.918 403.004
C 592.319 404.25 591.864 410.65 591.317 414.202
C 590.37 414.222 589.232 414.445 588.325 414.107
C 588.298 411.716 589.891 405.979 586.496 405.215
C 582.578 406.007 583.298 411.152 583.808 414.209
C 582.823 414.149 581.825 414.107 580.842 414.062
C 579.933 409.766 580.654 404.288 580.877 399.904 Z"
opacity="1" fill="rgb(40,51,75)" fill-rule="evenodd" />
<path d="
M 593.488 407.593
C 593.953 405.504 595.255 403.158 597.618 402.818
C 599.514 402.545 601.317 404.922 602.237 403.005
C 603.005 402.829 604.101 402.757 604.781 403.192
C 604.625 406.718 605.634 410.772 604.853 414.222
C 604.231 414.216 602.793 414.584 602.323 414.179
C 602.316 413.635 602.194 413.14 602.096 412.607
C 601.003 413.363 599.853 414.207 598.498 414.358
C 594.696 414.781 593.232 410.653 593.488 407.593 Z
M 596.345 407.545
C 596.2 408.23 596.148 408.913 596.267 409.609
C 596.731 412.334 600.355 412.378 601.687 410.255
C 602.302 409.275 602.217 407.406 601.735 406.403
C 599.681 404.479 597.487 405.111 596.345 407.545 Z"
opacity="1" fill="rgb(32,47,70)" fill-rule="evenodd" />
<path d="
M 606.99 417.63
C 607.394 414.271 607.235 410.861 607.296 407.486
C 607.322 406.023 607.043 404.284 607.766 402.978
C 608.552 403.056 609.074 403.25 609.639 403.81
C 610.882 403.795 611.77 402.826 613.098 402.857
C 617.004 402.945 618.984 406.497 618.27 410.06
C 616.997 414.274 614.07 414.277 610.321 413.711
C 609.723 414.997 610.116 417.441 610.415 418.817
C 609.258 418.781 608.112 418.742 606.974 418.512
C 606.979 417.905 606.974 418.199 606.99 417.63 Z
M 610.345 407.048
C 610.085 408.227 609.982 409.797 610.536 410.903
C 614.96 413.722 618.009 407.518 613.646 405.169
C 612.328 405.117 611.382 405.624 610.573 406.66
C 610.497 406.79 610.421 406.919 610.345 407.048 Z"
opacity="1" fill="rgb(39,55,74)" fill-rule="evenodd" />
<path d="
M 620.002 410.121
C 620.432 407.801 619.505 405.103 620.354 402.879
C 621.983 402.798 622.02 403.063 622.65 404.468
C 624.36 403.826 625.052 402.521 627.112 402.792
C 632.514 403.502 633.717 411.627 628.835 413.966
C 626.87 414.908 624.984 414.237 623.165 413.396
C 622.781 415.22 622.817 417.101 622.903 418.958
C 621.968 418.979 621.043 418.879 620.113 418.788
C 619.476 416.165 619.679 412.787 620.002 410.121 Z
M 623.369 407.051
C 622.888 408.348 623.133 410.077 624.19 411.021
C 625.663 412.336 628.074 411.83 628.683 409.883
C 629.154 408.379 628.777 406.557 627.485 405.567
C 626.142 404.536 623.931 405.537 623.369 407.051 Z"
opacity="1" fill="rgb(37,50,72)" fill-rule="evenodd" />
<path d="
M 633.437 406.053
C 635.908 400 645.367 403.173 644.672 409.311
C 644.387 409.668 642.998 409.381 642.489 409.384
C 640.276 409.396 638.205 409.1 636.01 409.552
C 635.646 410.656 637.14 411.835 638.164 412.038
C 639.572 412.318 640.229 411.134 641.391 410.753
C 642.202 410.487 643.161 410.644 643.943 410.907
C 643.786 413.981 638.475 415.31 636.024 414.127
C 632.958 412.646 632.555 409.059 633.437 406.053 Z
M 636.295 406.554
C 636.272 406.769 636.25 406.984 636.227 407.199
C 637.683 407.466 639.939 407.708 641.369 407.26
C 641.694 406.543 640.561 405.739 639.967 405.464
C 638.533 404.801 637.214 405.42 636.295 406.554 Z"
opacity="1" fill="rgb(37,51,66)" fill-rule="evenodd" />
<path d="
M 646.44 404.59
C 646.652 403.984 646.734 403.68 647.12 403.114
C 647.781 403.011 648.401 402.994 649.068 403.037
C 649.112 403.175 649.353 404.356 649.496 404.454
C 649.722 404.608 651.31 402.938 651.521 402.78
C 652.222 402.666 652.874 402.681 653.569 402.842
C 658.789 404.044 657.547 410.022 657.557 414.073
C 657.05 414.599 655.398 414.166 654.709 414.142
C 654.451 411.733 655.588 408.243 654.147 406.12
C 652.991 404.418 650.938 405.145 650.068 406.675
C 648.993 408.567 649.606 412.045 649.569 414.179
C 648.652 414.391 647.569 414.252 646.63 414.281
C 646.37 412.945 646.636 411.551 646.642 410.198
C 646.651 408.324 646.377 406.461 646.44 404.59 Z"
opacity="1" fill="rgb(36,48,64)" fill-rule="evenodd" />
<path d="
M 660.416 411.556
C 660.494 411.414 660.572 411.272 660.65 411.13
C 661.243 410.615 661.726 410.325 662.519 410.28
C 664.163 410.537 664.417 412.426 663.901 413.722
C 663.03 414.465 661.828 414.48 660.828 413.992
C 660.339 413.221 660.294 412.449 660.416 411.556 Z"
opacity="1" fill="rgb(31,39,56)" fill-rule="evenodd" />

</svg>